<svg data-v-0b89d8c4="" data-v-0259ebcc="" viewBox="0 0 139 27" fill="none" xmlns="http://www.w3.org/2000/svg" class=""><path data-v-0b89d8c4="" data-v-0259ebcc="" d="M12.5 1C19.404 1 25 6.596 25 13.5S19.404 26 12.5 26 0 20.404 0 13.5 5.596 1 12.5 1z" fill="#0E0E11"></path><path data-v-0b89d8c4="" data-v-0259ebcc="" d="M7.144 10.212a3.838 3.838 0 00-3.192 5.966l3.794-1.657 1.583-.699 1.548-.678a3.843 3.843 0 00-3.733-2.932zm-2.185 4.042c-.007-.069-.007-.13-.007-.2 0-1.212.986-2.198 2.199-2.198.657 0 1.246.288 1.65.747l-3.842 1.65zM9.829 16.801c-1.377 1.302-3.192 1.432-4.788.466l.904-1.37c.911.541 1.822.452 2.74-.267l1.144 1.171zM11.39 15.85l-.006-7.26h1.377v7.06c0 .07.006.13.095.165l1.199.466-.541 1.404-1.404-.596c-.534-.226-.72-.555-.72-1.24z" fill="#fff"></path><path data-v-0b89d8c4="" data-v-0259ebcc="" d="M16.568 15.726a2.201 2.201 0 01-.849-1.733c0-.623.26-1.192.685-1.589l-.89-1.438a3.86 3.86 0 00.212 6.212l.842-1.452z" fill="#2091C3"></path><path data-v-0b89d8c4="" data-v-0259ebcc="" d="M17.171 11.931a2.183 2.183 0 012.788 1.288l1.699-.144a3.858 3.858 0 00-3.754-2.945c-.514 0-1 .103-1.452.28l.72 1.521z" fill="#FAEC32"></path><path data-v-0b89d8c4="" data-v-0259ebcc="" d="M20.096 14.103a2.19 2.19 0 01-2.185 2.082c-.185 0-.363-.02-.534-.069l-.665 1.548a3.858 3.858 0 005.055-3.514l-1.671-.047z" fill="#D0352A"></path><circle data-v-0b89d8c4="" data-v-0259ebcc="" cx="40.5" cy="13.5" r="12.5" fill="#00579F"></circle><g data-v-0b89d8c4="" data-v-0259ebcc="" clip-path="url(#payment-options_svg__clip0)"><path data-v-0b89d8c4="" data-v-0259ebcc="" d="M39.136 16.81H37.48l1.037-6.6h1.657l-1.037 6.6zM45.143 10.372a3.98 3.98 0 00-1.486-.281c-1.636 0-2.788.899-2.795 2.183-.014.948.825 1.475 1.452 1.791.64.323.859.534.859.822-.007.442-.518.646-.995.646-.662 0-1.016-.105-1.555-.351l-.218-.106-.232 1.482c.389.182 1.105.344 1.848.351 1.738 0 2.87-.885 2.884-2.254.006-.751-.437-1.327-1.391-1.797-.58-.303-.935-.506-.935-.815.007-.281.3-.569.955-.569.538-.014.934.12 1.234.253l.15.07.225-1.425zM47.345 14.473l.662-1.847c-.007.014.136-.386.218-.632l.116.569s.314 1.58.382 1.91h-1.378zm2.046-4.262h-1.282c-.395 0-.695.119-.866.547l-2.461 6.053h1.739l.347-.99h2.128c.047.231.197.99.197.99h1.535l-1.337-6.6zM36.096 10.21l-1.623 4.501-.177-.912c-.3-1.054-1.241-2.198-2.291-2.767l1.486 5.772h1.752l2.605-6.593h-1.752z" fill="#fff"></path><path data-v-0b89d8c4="" data-v-0259ebcc="" d="M32.966 10.21H30.3l-.027.134c2.08.548 3.457 1.868 4.023 3.455l-.58-3.034c-.095-.421-.389-.54-.75-.554z" fill="#FAA61A"></path></g><circle data-v-0b89d8c4="" data-v-0259ebcc="" cx="68.5" cy="13.5" r="12.75" fill="#fff" stroke="#EDEDED" stroke-width=".5"></circle><path data-v-0b89d8c4="" data-v-0259ebcc="" d="M70.958 9.017h-4.916v8.813h4.916V9.017z" fill="#FF5F00"></path><path data-v-0b89d8c4="" data-v-0259ebcc="" d="M66.354 13.424c0-1.791.843-3.38 2.138-4.407a5.592 5.592 0 00-3.464-1.199 5.609 5.609 0 00-5.619 5.606 5.608 5.608 0 005.619 5.605 5.592 5.592 0 003.464-1.199 5.592 5.592 0 01-2.138-4.406z" fill="#EB001B"></path><path data-v-0b89d8c4="" data-v-0259ebcc="" d="M77.59 13.424a5.608 5.608 0 01-5.618 5.605 5.592 5.592 0 01-3.464-1.199 5.569 5.569 0 002.138-4.406c0-1.791-.843-3.38-2.138-4.407a5.592 5.592 0 013.465-1.199c3.105 0 5.618 2.523 5.618 5.606z" fill="#F79E1B"></path><circle data-v-0b89d8c4="" data-v-0259ebcc="" cx="98.5" cy="13.5" r="12.5" fill="#006FCF"></circle><path data-v-0b89d8c4="" data-v-0259ebcc="" d="M107.281 16.582h-1.143V17h1.1c.466 0 .762-.266.762-.646s-.254-.57-.677-.57h-.508c-.127 0-.211-.075-.211-.19 0-.113.084-.189.211-.189h.973l.212-.418h-1.143c-.465 0-.761.266-.761.608 0 .38.254.57.677.57h.508c.127 0 .211.076.211.19.043.151-.042.227-.211.227zm-2.074 0h-1.142V17h1.1c.465 0 .762-.266.762-.646s-.254-.57-.678-.57h-.507c-.127 0-.212-.075-.212-.19 0-.113.085-.189.212-.189h.973l.212-.418h-1.143c-.466 0-.762.266-.762.608 0 .38.254.57.677.57h.508c.127 0 .212.076.212.19.042.151-.085.227-.212.227zm-1.481-1.215v-.418h-1.777v2.013h1.777v-.418h-1.269v-.417h1.227v-.418h-1.227v-.38h1.269v.038zm-2.877 0c.211 0 .296.114.296.228s-.085.228-.296.228h-.635v-.494l.635.038zm-.635.873h.254l.677.722h.635l-.762-.76c.381-.075.592-.303.592-.607 0-.38-.296-.646-.761-.646h-1.185v2.013h.507l.043-.721zm-1.354-.607c0 .152-.085.266-.296.266h-.678v-.532h.635c.212 0 .339.114.339.266zm-1.481-.684v2.013h.507v-.683h.678c.465 0 .804-.266.804-.684 0-.38-.297-.684-.762-.684l-1.227.038zm-.762 2.013h.635l-.889-1.025.889-.988h-.635l-.55.646-.55-.646h-.635l.889.988-.889.987h.635l.55-.645.55.683zm-1.904-1.595v-.418h-1.778v2.013h1.778v-.418h-1.27v-.417h1.227v-.418h-1.227v-.38h1.27v.038zm10.283-3.57l.888 1.216h.635V11h-.508v1.33l-.127-.19-.804-1.14h-.677v2.013h.508v-1.367l.085.151zm-2.201-.038l.169-.417.17.417.211.456h-.761l.211-.456zm.889 1.254h.55L103.261 11h-.677l-.974 2.013h.55l.212-.418h1.1l.212.418zm-2.37 0l.212-.418h-.127c-.381 0-.593-.228-.593-.57v-.038c0-.341.212-.57.593-.57h.55V11h-.593c-.677 0-1.058.418-1.058.987v.038c0 .608.381.988 1.016.988zm-1.904 0h.508v-1.975h-.508v1.975zm-1.1-1.595c.211 0 .296.114.296.228 0 .113-.085.227-.296.227h-.635v-.493l.635.038zm-.635.873h.254l.677.722h.635l-.762-.76c.38-.076.592-.304.592-.607 0-.38-.296-.646-.761-.646h-1.185v2.013h.507l.043-.722zm-.931-.873V11h-1.777v2.013h1.777v-.418h-1.27v-.418h1.228v-.418h-1.228v-.38h1.27v.039zm-3.85 1.595h.465l.634-1.633v1.633h.508V11h-.846l-.508 1.367L92.639 11h-.846v2.013h.508V11.38l.592 1.633zm-2.752-1.254l.17-.417.17.417.21.456h-.761l.212-.456zm.89 1.254h.55L90.607 11h-.635L89 13.013h.55l.212-.418h1.1l.17.418z" fill="#fff" stroke="#fff" stroke-width=".1"></path><circle data-v-0b89d8c4="" data-v-0259ebcc="" cx="126.5" cy="13.5" r="12.5" fill="#B3131B"></circle><path data-v-0b89d8c4="" data-v-0259ebcc="" d="M124.786 17.88l-8.676.002v-.02c0-.011.014-.083.031-.16l.058-.27a22.4 22.4 0 00.058-.274l.061-.288.06-.284.058-.273.062-.289.059-.283c.015-.073.039-.184.054-.248l.04-.193a24.008 24.008 0 01.115-.546l.058-.274c.024-.108.05-.231.058-.273.008-.042.034-.165.058-.273l.057-.269.046-.222.075-.35c.024-.108.064-.297.089-.42l.068-.324.048-.222.057-.269.063-.293.059-.279.057-.268.063-.293c.018-.087.049-.219.068-.294.019-.075.046-.166.06-.203.013-.036.052-.114.085-.174l.059-.108.055-.07c.03-.037.083-.096.118-.132a1.89 1.89 0 01.253-.206 2.169 2.169 0 01.252-.138 2.385 2.385 0 01.315-.113 3.257 3.257 0 01.504-.099l.126-.016 8.681-.004 8.681-.003v.02c0 .011-.014.083-.031.16l-.063.291a29.75 29.75 0 00-.057.268l-.059.274a89.105 89.105 0 01-.12.567l-.059.273-.056.263-.058.279-.063.293-.058.269-.059.278-.063.294-.056.263-.058.278-.059.279-.057.263-.063.298-.059.274-.057.268-.062.294-.058.273-.059.278-.063.294-.057.268-.058.274-.063.292-.032.14-.038.098c-.02.053-.052.125-.069.158a1.836 1.836 0 01-.158.241 2.562 2.562 0 01-.122.125l-.089.086-.085.059a1.872 1.872 0 01-.112.072 5.667 5.667 0 01-.126.062c-.054.026-.13.06-.17.074a2.734 2.734 0 01-.44.116 3.585 3.585 0 01-.252.038l-.15.017-8.675.003zm-3.087-2.164h.226l.006-.016a.14.14 0 00.007-.046c0-.017.007-.077.016-.134l.048-.29.056-.345.039-.245a.339.339 0 01.018-.089c.004 0 .018.022.033.048l.026.048.058.056.058.057.072.028.072.027.085.011.085.01.109-.006.108-.006.118-.03.117-.029.063-.027a1.23 1.23 0 00.136-.074l.074-.046.069-.066c.037-.037.09-.095.118-.13a.57.57 0 00.049-.069 1.207 1.207 0 00.105-.191c.024-.056.063-.156.085-.223l.041-.122.021-.105c.011-.058.026-.153.033-.213l.012-.107-.007-.091-.007-.091-.022-.091-.022-.091-.035-.069-.036-.068-.068-.07-.069-.07-.081-.04-.081-.04-.089-.021-.09-.02-.089-.007-.089-.006-.099.01-.1.012-.081.02-.081.02-.071.031a1.364 1.364 0 00-.125.065.65.65 0 00-.069.048.353.353 0 01-.042.031l-.028.017.02-.088c.01-.05.019-.095.019-.102l.001-.013h-.385l-.034.205-.065.388a44.058 44.058 0 01-.116.663 20.675 20.675 0 01-.12.642l-.058.304-.064.334c-.017.09-.046.23-.063.314a9.419 9.419 0 01-.037.175l-.006.023h.226zm.972-1.171l-.088.005-.057-.01-.057-.01-.058-.025-.059-.026-.04-.037-.041-.037-.023-.051a.649.649 0 01-.037-.105l-.014-.055.006-.087.005-.087.027-.137a27.752 27.752 0 00.119-.631l.028-.14.06-.048a.961.961 0 01.117-.08l.056-.03.073-.022.074-.022.094-.006.095-.005.077.016.077.016.054.024.054.024.046.044.046.044.024.047a.581.581 0 01.042.112l.018.065-.005.192-.006.193-.027.113a2.3 2.3 0 01-.063.213l-.035.099-.044.08a1.246 1.246 0 01-.083.132.572.572 0 01-.15.14l-.039.029-.089.029-.089.029-.088.005zm2.18.278l.116.002.115-.01a4.037 4.037 0 00.475-.069l.129-.028.006-.045c.004-.025.018-.1.032-.166l.026-.12-.006-.006-.006-.005-.039.018c-.021.01-.089.034-.149.053l-.11.035-.116.022-.116.021h-.367l-.063-.018a.922.922 0 01-.113-.044l-.051-.024-.041-.036-.041-.036-.033-.055-.032-.054-.02-.068-.021-.069v-.253l.018-.113.018-.113.158-.007.158-.007.584.003.584.004.018-.072c.009-.04.024-.122.033-.182l.015-.11v-.093l.001-.093-.017-.069-.017-.069-.027-.046a.475.475 0 00-.219-.194l-.052-.027-.092-.021-.091-.022-.114-.01-.113-.01-.105.006-.105.007-.126.023-.126.023-.078.03a1.002 1.002 0 00-.363.23.889.889 0 00-.175.244c-.02.039-.047.093-.059.121a2.327 2.327 0 00-.143.507l-.016.103v.301l.016.066a.82.82 0 00.086.223.516.516 0 00.07.09.898.898 0 00.095.081c.029.02.081.05.115.065l.061.027.087.02c.047.011.118.024.158.029.04.005.125.01.188.01zm.198-1.426c-.29 0-.528-.002-.528-.004l.027-.079c.015-.04.042-.101.059-.134l.032-.061.07-.067.069-.066.068-.032a.844.844 0 01.11-.042c.024-.005.09-.013.147-.016l.105-.007.081.01.081.01.058.026.059.026.032.033a.345.345 0 01.047.06l.015.027.009.06.01.059-.011.098-.011.1h-.529zm3.142 1.426l.115.002.131-.015a2.406 2.406 0 00.376-.068.525.525 0 00.089-.029.416.416 0 00.028-.102l.03-.156a.267.267 0 00.007-.065.922.922 0 01-.132.053l-.101.036-.144.027-.144.027-.123-.004-.122-.004-.07-.023-.069-.024-.054-.045-.054-.045-.035-.063-.036-.062-.017-.084-.017-.084v-.217l.021-.132.021-.131.022-.071.03-.101a1.107 1.107 0 01.118-.25l.04-.067.05-.05.05-.05.053-.032.053-.031.068-.02a1.29 1.29 0 01.146-.033l.079-.011.116.005.115.006.137.026.136.026.056.02.058.02a.54.54 0 00.016-.083l.029-.168a.354.354 0 00.011-.089.576.576 0 00-.091-.014 7.435 7.435 0 00-.287-.02l-.201-.012-.142.01-.142.011-.105.021-.105.022-.068.026a1.081 1.081 0 00-.204.109 1.463 1.463 0 00-.11.097l-.08.076-.045.063a1.467 1.467 0 00-.095.162l-.05.098-.038.106a2.472 2.472 0 00-.066.213l-.027.106-.01.096-.01.097v.126l.001.127.009.073.01.074.032.076.031.075.037.055.036.055.058.055.057.055.062.03.061.032.08.021c.044.012.108.026.142.03a1.8 1.8 0 00.177.01zm1.727-.003l.141-.004.09-.022.089-.022.058-.027a.835.835 0 00.318-.252.257.257 0 01.045-.05c.001.001-.004.048-.012.103a1.48 1.48 0 00-.015.165v.063h.385l.006-.144.006-.145.027-.187a18.412 18.412 0 01.112-.653l.058-.309.028-.146.001-.127.001-.127-.03-.059-.029-.058-.041-.038-.04-.037-.066-.032-.067-.032-.098-.022-.099-.02-.136-.01-.136-.01-.175.01a6.5 6.5 0 00-.301.025l-.126.015H129.741l-.013.058a5.626 5.626 0 01-.042.17.793.793 0 00-.027.114.706.706 0 00.102-.023 3.82 3.82 0 01.256-.051l.158-.026.142-.006.141-.005.092.015.091.016.061.029.061.029.034.049.034.049v.077l-.001.077-.018.085-.018.085-.378.001-.378.002-.123.032a1.546 1.546 0 00-.221.074.626.626 0 00-.09.048l-.08.048-.063.06a.985.985 0 00-.099.112.973.973 0 00-.07.13l-.035.078-.016.088-.016.089v.185l.015.077.015.078.029.05a.617.617 0 00.064.09l.035.04.063.037.063.037.071.02c.04.01.1.023.134.028l.062.01.142-.004zm.131-.284l-.084.005-.056-.014a.622.622 0 01-.103-.037l-.047-.024-.026-.03a.466.466 0 01-.049-.07l-.022-.043-.005-.097-.004-.097.018-.06a.782.782 0 01.051-.124l.033-.067.064-.06.063-.061.068-.032.067-.031.084-.02.084-.019h.525l.017.007.017.006-.014.08a2.087 2.087 0 01-.099.348.522.522 0 01-.069.151l-.038.063-.063.06a.42.42 0 01-.072.06.188.188 0 00-.047.025l-.039.025-.085.026-.085.026-.084.005zm3.418.287l.099.002.095-.015a.759.759 0 00.262-.075l.063-.031.055-.046.054-.046.057-.073c.031-.04.06-.08.063-.089l.006-.015-.005.05c-.003.028-.01.074-.015.102a2.093 2.093 0 00-.016.119l-.007.068h.412v-.137l.032-.258c.017-.142.042-.33.056-.42a15.666 15.666 0 01.097-.552 35.004 35.004 0 01.177-.936l.059-.304a22.302 22.302 0 01.083-.402v-.008h-.449l-.007.063c-.004.035-.021.15-.038.256l-.063.375-.037.216-.006.033-.017-.007a1.77 1.77 0 00-.118-.031l-.1-.025-.136-.01-.137-.01-.115.01-.116.01-.105.026-.105.026-.099.047-.1.047-.074.052-.073.053-.064.065a1.713 1.713 0 00-.112.133l-.048.067-.057.114c-.032.063-.07.147-.085.186a2.487 2.487 0 00-.06.192l-.032.121-.016.157-.016.158.012.126.012.127.014.045c.008.025.024.07.036.1l.022.053.041.053.04.052.046.037.046.036.063.03a.881.881 0 00.261.074c.036.004.11.009.165.01zm.179-.287l-.08.004-.053-.01a.612.612 0 01-.105-.03l-.051-.02-.043-.035-.043-.034-.032-.059-.032-.059-.014-.066-.015-.066.001-.131.001-.132.017-.116.017-.117.027-.08a.833.833 0 00.026-.094c0-.007.014-.043.032-.08a2.44 2.44 0 01.064-.13.945.945 0 01.168-.217.725.725 0 01.096-.074l.047-.028.083-.028.082-.027h.347l.1.026c.055.015.113.032.129.038l.03.011-.006.028-.028.15-.052.283-.058.298c-.015.075-.037.171-.048.213l-.037.128a.777.777 0 01-.105.216.61.61 0 01-.068.077c-.02.018-.062.049-.093.069l-.058.037-.083.025-.084.026-.079.004zm-15.454.238h.255l.019-.109.043-.255.058-.335a88.982 88.982 0 01.112-.627 1.33 1.33 0 01.031-.141l.006-.006h1.372l.008.007.007.008-.012.058-.043.22-.064.335-.058.298-.062.324a6.36 6.36 0 00-.037.21v.013h.513l.011-.063a6.05 6.05 0 00.022-.14l.032-.197.053-.293.062-.36.059-.334.057-.304.062-.324.059-.308.059-.314a6.84 6.84 0 01.05-.246l.018-.073h-.519l-.007.048a22.378 22.378 0 01-.074.418 24.118 24.118 0 00-.106.613l-.017.113-.381.007-.381.008-.319-.008a16.437 16.437 0 01-.321-.009 6.174 6.174 0 01.049-.27c.011-.052.033-.157.047-.232.015-.075.032-.168.037-.207.006-.04.018-.104.026-.144a7.53 7.53 0 00.038-.19c.011-.063.024-.122.027-.131l.006-.016h-.514l-.017.088a4.395 4.395 0 00-.026.155l-.043.258a55.527 55.527 0 00-.116.698c-.017.106-.046.27-.064.365l-.057.299-.058.293c-.018.092-.044.222-.059.289l-.035.172a7.533 7.533 0 01-.036.178c-.015.07-.027.136-.027.145v.016h.255zm2.825 0h.225l.007-.016a2.678 2.678 0 01.038-.276 42.126 42.126 0 01.178-1.009l.057-.288c.015-.076.043-.219.064-.318.021-.1.04-.185.043-.19l.006-.01-.229.004-.228.002-.019.132c-.011.072-.033.216-.051.319l-.059.35a14.212 14.212 0 01-.114.612l-.059.293-.052.253a2.2 2.2 0 01-.027.12l-.006.022h.226zm5.282 0h.224l.007-.091a3.37 3.37 0 01.028-.226l.054-.326c.017-.106.05-.282.073-.391a2.712 2.712 0 01.072-.299 1.202 1.202 0 01.123-.24l.048-.067.064-.057.064-.058.079-.036.079-.036h.241l.06.018c.032.01.062.017.065.017.004 0 .007-.01.007-.024 0-.013.012-.08.026-.148l.026-.13a.28.28 0 00-.076-.03.985.985 0 00-.129-.028l-.052-.006-.068.011a.862.862 0 00-.124.032.697.697 0 00-.221.138c-.028.027-.075.08-.105.12l-.069.09-.015.02.009-.04.031-.162c.012-.067.024-.13.028-.139l.005-.018h-.4v.025c0 .013-.012.094-.027.18l-.052.317-.058.344c-.017.1-.043.243-.058.319l-.058.293-.063.314-.047.227a.742.742 0 00-.015.078v.009h.224zm5.322 0h.229v-.135l.026-.168.053-.325a6.444 6.444 0 01.087-.47 2.207 2.207 0 01.065-.246c0-.007.019-.053.043-.101l.043-.088.057-.074.057-.073.063-.045a.905.905 0 01.123-.073l.06-.029.131.001.131.001.052.016.052.016.009-.005.008-.005.001-.033c0-.017.011-.083.025-.147l.024-.114-.027-.01a2.053 2.053 0 00-.081-.027l-.052-.016h-.189l-.077.027-.077.026-.058.034-.058.033-.075.076-.075.076-.04.059a.294.294 0 01-.044.056 1.38 1.38 0 01.027-.15c.016-.081.03-.157.03-.17l.001-.023h-.389v.007l-.021.144-.053.325-.063.37a36.758 36.758 0 01-.178.921l-.05.245-.02.094h.23zm-10.16-2.47h.063l.051-.017.051-.017.045-.043.045-.044.023-.059.024-.058.001-.086v-.086l-.021-.034-.021-.033-.036-.022-.037-.022h-.158l-.053.023-.054.023-.031.032-.031.033-.025.056-.024.055-.005.087-.005.087.023.043.023.043.044.02.044.018h.064z" fill="#fff"></path><defs data-v-0b89d8c4="" data-v-0259ebcc=""><clipPath data-v-0b89d8c4="" data-v-0259ebcc="" id="payment-options_svg__clip0"><path data-v-0b89d8c4="" data-v-0259ebcc="" fill="#fff" transform="translate(30.273 10.09)" d="M0 0h20.454v6.818H0z"></path></clipPath></defs></svg>
