<svg data-v-0259ebcc="" viewBox="0 0 16 16" fill="none" xmlns="http://www.w3.org/2000/svg" class="icon"><path data-v-0259ebcc="" d="M12.478 12.24a2.336 2.336 0 01-1.662-.688l-2.4-2.4a.456.456 0 00-.63 0l-2.41 2.408a2.336 2.336 0 01-1.661.688h-.473l3.04 3.04c.948.95 2.487.95 3.437 0l3.048-3.048h-.29zM3.715 3.751c.627 0 1.218.245 1.662.688l2.408 2.41a.446.446 0 00.63 0l2.4-2.4a2.336 2.336 0 011.663-.689h.289L9.719.712a2.43 2.43 0 00-3.438 0l-3.04 3.04h.474z" fill="#000"></path><path data-v-0259ebcc="" d="M15.288 6.281L13.446 4.44a.351.351 0 01-.13.027h-.838c-.433 0-.857.175-1.163.481l-2.4 2.4a1.149 1.149 0 01-1.629 0L4.877 4.94a1.655 1.655 0 00-1.162-.482h-1.03a.35.35 0 01-.124-.025l-1.85 1.85a2.43 2.43 0 000 3.437l1.85 1.85a.35.35 0 01.124-.026h1.03c.433 0 .857-.175 1.163-.482l2.408-2.408a1.18 1.18 0 011.63 0l2.4 2.4c.305.306.729.481 1.162.481h.837c.047 0 .09.01.131.027l1.842-1.842a2.43 2.43 0 000-3.438z" fill="#000"></path></svg>
